HIERARCHY
ROOT Hips
{
    OFFSET 0.000000 0.000000 0.000000
    CHANNELS 6 Xposition Yposition Zposition Zrotation Xrotation Yrotation
    JOINT Spine
    {
        OFFSET -0.000000 7.246840 0.000000
        CHANNELS 3 Zrotation Xrotation Yrotation
        JOINT Spine1
        {
            OFFSET -0.000000 20.289354 0.000000
            CHANNELS 3 Zrotation Xrotation Yrotation
            JOINT Neck
            {
                OFFSET -0.000000 20.206032 1.836912
                CHANNELS 3 Zrotation Xrotation Yrotation
                JOINT Head
                {
                    OFFSET -0.000000 12.372654 -1.767522
                    CHANNELS 3 Zrotation Xrotation Yrotation
                    End Site
                    {
                        OFFSET -0.000000 22.094025 0.000000
                    }
                }
            }
            JOINT LeftShoulder
            {
                OFFSET 3.465871 17.201674 -0.568930
                CHANNELS 3 Zrotation Xrotation Yrotation
                JOINT LeftArm
                {
                    OFFSET 14.070313 0.000000 0.000000
                    CHANNELS 3 Zrotation Xrotation Yrotation
                    JOINT LeftForeArm
                    {
                        OFFSET 26.549477 0.000000 0.000000
                        CHANNELS 3 Zrotation Xrotation Yrotation
                        JOINT LeftHand
                        {
                            OFFSET 18.880413 0.000000 0.000000
                            CHANNELS 3 Zrotation Xrotation Yrotation
                            End Site
                            {
                                OFFSET 13.256415 0.000000 0.000000
                            }
                        }
                    }
                }
            }
            JOINT RightShoulder
            {
                OFFSET -3.526370 17.201674 -0.568930
                CHANNELS 3 Zrotation Xrotation Yrotation
                JOINT RightArm
                {
                    OFFSET -14.070313 0.000000 0.000000
                    CHANNELS 3 Zrotation Xrotation Yrotation
                    JOINT RightForeArm
                    {
                        OFFSET -26.549477 0.000000 0.000000
                        CHANNELS 3 Zrotation Xrotation Yrotation
                        JOINT RightHand
                        {
                            OFFSET -18.880413 0.000000 0.000000
                            CHANNELS 3 Zrotation Xrotation Yrotation
                            End Site
                            {
                                OFFSET -13.256415 0.000000 0.000000
                            }
                        }
                    }
                }
            }
        }
    }
    JOINT LeftUpLeg
    {
        OFFSET 8.837609 0.000000 0.000000
        CHANNELS 3 Zrotation Xrotation Yrotation
        JOINT LeftLeg
        {
            OFFSET -0.000000 -41.345005 0.000000
            CHANNELS 3 Zrotation Xrotation Yrotation
            JOINT LeftFoot
            {
                OFFSET -0.000000 -35.500874 0.000000
                CHANNELS 3 Zrotation Xrotation Yrotation
                JOINT LeftToeBase
                {
                    OFFSET -0.000000 -5.744446 13.256415
                    CHANNELS 3 Zrotation Xrotation Yrotation
                    End Site
                    {
                        OFFSET -0.000000 0.000000 3.535044
                    }
                }
            }
        }
    }
    JOINT RightUpLeg
    {
        OFFSET -8.837609 0.000000 0.000000
        CHANNELS 3 Zrotation Xrotation Yrotation
        JOINT RightLeg
        {
            OFFSET -0.000000 -41.345005 0.000000
            CHANNELS 3 Zrotation Xrotation Yrotation
            JOINT RightFoot
            {
                OFFSET -0.000000 -35.500874 0.000000
                CHANNELS 3 Zrotation Xrotation Yrotation
                JOINT RightToeBase
                {
                    OFFSET -0.000000 -5.744446 13.256415
                    CHANNELS 3 Zrotation Xrotation Yrotation
                    End Site
                    {
                        OFFSET -0.000000 0.000000 3.535044
                    }
                }
            }
        }
    }
}
MOTION
Frames:    4
Frame Time:    0.010000
6.939373    82.442436    -62.862808    4.215155    3.286793    -0.283904    -4.166578    -12.276961    -0.238946    0.431762    1.986258    0.201902    1.296892    32.515224    -2.876939    0.716203    -10.442474    -2.617900    21.519604    3.083685    7.293623    -30.064280    6.177809    -8.535949    8.505300    -12.711849    -9.485251    -36.252594    -11.441585    -1.808536    -17.002972    1.727421    9.196424    18.093821    -0.075880    9.515002    -4.185265    -4.213068    -1.142413    9.557761    -3.054170    14.314318    -5.329545    1.511909    -0.922813    -1.693900    -1.819136    -1.831772    6.510405    -0.478979    -2.989299    -0.927049    -2.661964    1.319144    -8.419653    4.195948    1.271925    7.970290    -10.615608    3.870610    -2.687300    0.452482    -8.720960    0.005410    0.113466    -0.009691    
6.937233    82.442055    -62.868435    4.218289    3.284783    -0.269784    -4.169940    -12.269458    -0.243763    0.432810    1.996839    0.197210    1.295905    32.510658    -2.885720    0.726388    -10.436998    -2.624947    21.499424    3.106979    7.302923    -30.054785    6.099795    -8.563193    8.497959    -12.731549    -9.492283    -36.287739    -11.477206    -1.757741    -17.015127    1.724397    9.195600    18.074478    -0.138604    9.511669    -4.170265    -4.138241    -1.165175    9.540920    -2.985675    14.271439    -5.328603    1.518364    -0.942277    -1.694234    -1.835906    -1.827685    6.491124    -0.471671    -3.005542    -0.956254    -2.661547    1.360697    -8.421914    4.198644    1.259347    7.981449    -10.614999    3.877294    -2.684911    0.455303    -8.715949    0.007663    0.116423    -0.013725    
6.934036    82.441757    -62.875618    4.222786    3.288378    -0.259305    -4.171143    -12.260506    -0.247911    0.418577    1.997366    0.192923    1.292647    32.494415    -2.879040    0.764840    -10.413298    -2.610001    21.519396    3.090842    7.325747    -30.061743    6.134689    -8.582983    8.507733    -12.740213    -9.476506    -36.342113    -11.491254    -1.739378    -17.010336    1.714592    9.201471    18.027365    -0.111037    9.476691    -4.148539    -4.123328    -1.144799    9.585990    -2.964850    14.262845    -5.333301    1.513828    -0.925504    -1.719491    -1.828312    -1.726327    6.527245    -0.497062    -3.111280    -0.925176    -2.668689    1.316536    -8.422567    4.192802    1.262519    7.981030    -10.614233    3.869151    -2.677911    0.447022    -8.763894    -0.028834    0.135286    0.051633    
6.932189    82.441505    -62.883038    4.223364    3.291121    -0.248548    -4.167705    -12.250851    -0.247671    0.408115    1.994469    0.192885    1.276799    32.486176    -2.863133    0.824344    -10.396496    -2.582500    21.514273    3.094200    7.322630    -30.041302    6.142737    -8.599813    8.503168    -12.714650    -9.458810    -36.304321    -11.469498    -1.734275    -17.024185    1.729691    9.192285    18.017530    -0.222448    9.462424    -4.148360    -4.087105    -1.133506    9.669206    -2.915060    14.293501    -5.329224    1.512440    -0.939439    -1.729390    -1.841745    -1.695480    6.522922    -0.495714    -3.150190    -0.956383    -2.912388    1.363035    -8.421990    4.184699    1.263298    7.974009    -10.609198    3.891298    -2.667663    0.446931    -8.769114    0.010478    0.106624    -0.018769    
